HIERARCHY
ROOT Hips
{
	OFFSET 0.000000 0.000000 0.000000 
	CHANNELS 6 Xposition Yposition Zposition Yrotation Zrotation Xrotation 
	JOINT Lumbar
	{
		OFFSET 0.000000 0.000000 0.000000 
		CHANNELS 3 Zrotation Xrotation Yrotation
		JOINT Neck
		{
			OFFSET 0.000000 0.445665 0.000000 
			CHANNELS 3 Zrotation Xrotation Yrotation
			End Site
			{
				OFFSET 0.000000 0.227535 0.000000 
			}
		}
		JOINT RightShoulder
		{
			OFFSET 0.019635 0.377685 0.194865 
			CHANNELS 3 Zrotation Xrotation Yrotation
			JOINT RightElbow
			{
				OFFSET 0.000000 -0.243375 0.000000 
				CHANNELS 2 Zrotation Yrotation
				JOINT RightWrist
				{
					OFFSET 0.000000 -0.264825 0.000000 
					CHANNELS 2 Zrotation Xrotation
					End Site
					{
						OFFSET 0.006600 -0.176220 0.000990 
					}
				}
			}
		}
		JOINT LeftShoulder
		{
			OFFSET 0.019635 0.377685 -0.194865 
			CHANNELS 3 Zrotation Xrotation Yrotation
			JOINT LeftElbow
			{
				OFFSET 0.000000 -0.243375 0.000000 
				CHANNELS 2 Zrotation Yrotation
				JOINT LeftWrist
				{
					OFFSET 0.000000 -0.264825 0.000000 
					CHANNELS 2 Zrotation Xrotation
					End Site
					{
						OFFSET 0.006600 -0.176220 -0.000990 
					}
				}
			}
		}
	}
	JOINT RightHip
	{
		OFFSET 0.052140 -0.069960 0.075570 
		CHANNELS 3 Zrotation Xrotation Yrotation
		JOINT RightKnee
		{
			OFFSET 0.000000 -0.402270 0.000000 
			CHANNELS 1 Zrotation
			JOINT RightAnkle
			{
				OFFSET 0.000000 -0.404085 0.000000 
				CHANNELS 3 Zrotation Xrotation Yrotation
				End Site
				{
					OFFSET 0.204105 -0.089430 0.008415 
				}
			}
		}
	}
	JOINT LeftHip
	{
		OFFSET 0.052140 -0.069960 -0.075570 
		CHANNELS 3 Zrotation Xrotation Yrotation
		JOINT LeftKnee
		{
			OFFSET 0.000000 -0.402270 0.000000 
			CHANNELS 1 Zrotation
			JOINT LeftAnkle
			{
				OFFSET 0.000000 -0.404085 0.000000 
				CHANNELS 3 Zrotation Xrotation Yrotation
				End Site
				{
					OFFSET 0.204105 -0.089430 -0.008415 
				}
			}
		}
	}
}
MOTION
Frames: 30
Frame Time: 0.02
-0.14159 -0.02563 -0.20188 97.02884 -46.30164 -4.97715 31.68347 -4.21825 2.26495 11.09757 -14.13001 -0.83079 60.86398 -3.21543 62.399 80.0199 66.9866 9.84554 -7.56512 44.17429 12.89284 -37.17539 54.52855 -80.99215 -2.74094 6.81592 48.89962 -0.83923 -6.71239 -28.26836 -6.03763 -2.86824 -2.11065 77.01622 14.52955 -3.33835 -36.29938 -14.28396 3.22933 2.6738
-0.13887 -0.02516 -0.1997 96.95254 -46.03407 -4.67519 31.87292 -4.17509 2.89784 11.11279 -13.88576 -0.83079 61.93802 -2.95216 62.3178 77.11408 66.74016 9.48155 -7.75214 41.68491 13.33363 -41.11485 57.68134 -80.99849 -1.82923 6.44444 48.7694 -0.91801 -6.44609 -28.22218 -6.0393 -2.86743 -2.10768 76.62273 14.75302 -3.2578 -36.39225 -14.09482 3.14077 2.61457
-0.13693 -0.02482 -0.1977 96.85378 -45.85961 -4.41476 31.95962 -4.15987 3.90254 11.13713 -13.55466 -0.83079 62.51472 -3.0244 62.1821 74.07639 66.96841 9.05096 -7.84003 39.24799 13.84681 -45.73495 62.87802 -81.00832 -0.73724 5.8246 48.72485 -1.0473 -6.24218 -28.21515 -6.03702 -2.8689 -2.10218 76.27743 14.98868 -3.01908 -36.56684 -13.78614 3.08184 2.5697
-0.13468 -0.02443 -0.19565 96.77168 -45.65133 -4.14521 32.09231 -4.13084 4.73749 11.15059 -13.26225 -0.83079 63.23338 -2.96828 62.03038 71.17105 67.05886 8.68693 -7.94401 36.88773 14.3264 -49.93647 67.14081 -81.0191 0.26524 5.33375 48.64595 -1.15329 -6.037 -28.18788 -6.03686 -2.86736 -2.09707 75.9207 15.2172 -2.85434 -36.70193 -13.54604 3.01229 2.52047
-0.13227 -0.02402 -0.19348 96.65857 -45.41103 -3.83654 32.22668 -4.10802 5.58381 11.19093 -12.97076 -0.83079 64.31748 -2.80601 62.0329 67.91361 66.82867 8.16373 -8.16788 34.07856 14.81395 -54.65446 71.47728 -81.01863 1.31652 4.77641 48.55224 -1.26109 -5.71532 -28.17127 -6.03549 -2.87429 -2.09543 75.52559 15.45532 -2.67536 -36.85112 -13.24612 2.9295 2.46124
-0.13037 -0.02367 -0.1916 96.60744 -45.25909 -3.6188 32.33291 -4.07843 6.48716 11.17952 -12.65906 -0.83079 64.52067 -2.9436 61.71451 65.382 67.3647 7.95759 -8.12301 32.2269 15.29774 -58.429 76.10456 -81.04193 2.29475 4.30015 48.50798 -1.37597 -5.64846 -28.14044 -6.03564 -2.86459 -2.08613 75.22024 15.67466 -2.49035 -36.98793 -13.04101 2.88125 2.42622
-0.1296 -0.02345 -0.19037 96.71624 -45.31594 -3.63764 32.39568 -4.02234 7.51222 11.00496 -12.29567 -0.83079 62.38664 -3.85787 60.44523 64.81304 70.03607 8.6544 -7.31601 32.99844 15.78304 -59.53476 81.28872 -81.14356 3.12317 4.08154 48.57967 -1.51084 -6.31208 -28.07543 -6.04095 -2.80197 -2.0529 75.14387 15.84598 -2.33034 -37.08105 -13.14258 2.92799 2.45928
-0.12933 -0.02328 -0.18942 96.89103 -45.4603 -3.74709 32.43229 -3.95861 8.57086 10.78157 -11.91859 -0.83079 59.38949 -5.05656 58.87166 64.99765 73.4355 9.67096 -6.2503 34.73525 16.25604 -59.64409 86.6397 -81.27 3.85299 3.95739 48.69764 -1.64893 -7.22233 -27.99219 -6.04793 -2.72367 -2.01261 75.15668 15.99613 -2.17038 -37.15652 -13.34083 3.00762 2.5156
-0.1289 -0.02307 -0.1884 97.04763 -45.57178 -3.81751 32.47519 -3.89852 9.57788 10.59203 -11.55872 -0.83079 56.79882 -6.10731 57.48929 64.89251 76.41581 10.53555 -5.33149 36.04065 16.71511 -60.13266 91.74864 -81.37214 4.56363 3.80738 48.79337 -1.77711 -7.99376 -27.90778 -6.0541 -2.65666 -1.97768 75.13225 16.1515 -2.0087 -37.23273 -13.48487 3.06772 2.55821
-0.12821 -0.0229 -0.18716 97.15601 -45.65673 -3.88012 32.53801 -3.83794 10.75255 10.35264 -11.14807 -0.83079 54.11775 -7.25298 55.87866 64.56316 79.79333 11.42811 -4.28425 37.32275 17.25976 -60.94713 97.64707 -81.5156 5.55011 3.57751 48.8966 -1.94222 -8.88288 -27.86451 -6.06026 -2.57205 -1.93355 75.09528 16.32699 -1.84682 -37.34247 -13.66852 3.14743 2.61413
-0.12817 -0.02268 -0.18644 97.37776 -45.81749 -3.98028 32.55457 -3.7772 11.57976 10.20656 -10.84275 -0.83079 51.44302 -8.25855 54.67543 64.87701 82.50004 12.33633 -3.44584 38.87454 17.62153 -60.84888 101.8941 -81.5961 5.9372 3.53862 48.99487 -2.03114 -9.58121 -27.73087 -6.06701 -2.52047 -1.90699 75.10553 16.45406 -1.68967 -37.37725 -13.79364 3.19466 2.6482
-0.12963 -0.0223 -0.18698 97.92168 -46.15712 -4.15957 32.44981 -3.70922 11.45019 10.31909 -10.81718 -0.83079 48.85841 -8.8541 54.64083 66.8206 83.26511 13.23304 -3.2348 40.99731 17.48951 -58.3711 101.70796 -81.33959 4.68983 4.01175 49.06073 -1.90357 -9.72211 -27.35042 -6.07404 -2.56278 -1.93003 75.21961 16.46382 -1.52672 -37.20834 -13.73897 3.13613 2.61185
-0.13174 -0.02187 -0.18803 98.57205 -46.57134 -4.37411 32.30003 -3.64301 10.96677 10.52863 -10.90088 -0.83079 46.33969 -9.28851 55.03143 69.37584 83.31385 14.12898 -3.24535 43.34429 17.17364 -55.02757 99.81969 -81.0415 2.84697 4.67205 49.12099 -1.70015 -9.657 -26.87975 -6.08184 -2.63899 -1.9711 75.37917 16.42355 -1.37231 -36.96502 -13.62171 3.04515 2.55349
-0.13364 -0.02148 -0.18889 99.15819 -46.95674 -4.57343 32.17126 -3.58129 10.63516 10.70167 -10.94493 -0.83079 43.88241 -9.76453 55.24958 71.63112 83.62628 15.01211 -3.16363 45.55006 16.93409 -52.1409 98.58103 -80.87395 1.27221 5.24481 49.18809 -1.53446 -9.66593 -26.45135 -6.08995 -2.70049 -2.00439 75.52023 16.3986 -1.22792 -36.75515 -13.53002 2.9741 2.50799
-0.13519 -0.02104 -0.1896 99.81668 -47.32341 -4.77114 32.03874 -3.49616 10.33922 10.8434 -10.94762 -0.83079 41.00323 -10.38411 55.37487 74.0191 84.21385 15.96797 -3.03862 47.96389 16.71786 -48.94093 97.84284 -80.26341 -0.31417 5.8376 49.23842 -1.35438 -9.76464 -26.01707 -6.09528 -2.75882 -2.0358 75.65358 16.40368 -1.02708 -36.54351 -13.45348 2.88223 2.45116
-0.13763 -0.02068 -0.19074 100.34497 -47.74619 -4.98117 31.90425 -3.46131 9.88914 11.07101 -11.06079 -0.83079 39.03687 -10.66276 55.79156 76.24902 84.06334 16.76042 -3.058 49.97454 16.41812 -46.21492 95.69312 -80.5309 -1.99273 6.42389 49.32215 -1.18718 -9.62615 -25.57373 -6.10659 -2.83163 -2.07531 75.81474 16.33532 -0.94291 -36.32153 -13.32962 2.82576 2.41249
-0.14228 -0.02055 -0.1929 100.52027 -48.30058 -5.20143 31.77061 -3.55657 9.06084 11.53834 -11.46773 -0.83079 39.51826 -10.03686 56.97063 78.033 81.9235 17.16857 -3.43747 50.90183 15.85587 -44.88376 89.73727 -83.53746 -3.98269 7.01682 49.49519 -1.06551 -8.86507 -25.12738 -6.13399 -2.93944 -2.13461 76.02305 16.07052 -1.20505 -36.05966 -13.08729 2.87332 2.4283
-0.14782 -0.02051 -0.19548 100.55407 -48.90945 -5.43563 31.63743 -3.70405 8.09795 12.08424 -11.97901 -0.83079 40.92975 -9.07278 58.41844 79.60482 79.08836 17.40067 -3.95214 51.39511 15.22804 -44.08159 82.48085 -87.37827 -6.00604 7.58433 49.70236 -0.96089 -7.87459 -24.67443 -6.16743 -3.06011 -2.20113 76.26085 15.73486 -1.5798 -35.79541 -12.79969 2.95772 2.46319
-0.15302 -0.02043 -0.19789 100.63139 -49.4962 -5.67242 31.50745 -3.83304 7.22062 12.57695 -12.43279 -0.83079 41.95869 -8.26329 59.70404 81.18064 76.64714 17.6649 -4.39708 52.02637 14.68361 -43.13265 76.02971 -90.62963 -7.88139 8.11544 49.89681 -0.85425 -6.99962 -24.22549 -6.19823 -3.17278 -2.26318 76.49674 15.43548 -1.88529 -35.55186 -12.53425 3.02625 2.48995
-0.15796 -0.02033 -0.20023 100.8017 -50.0742 -5.87124 31.36201 -3.93968 6.22302 13.14619 -12.93398 -0.83079 42.82515 -7.4431 61.17283 83.17681 73.84057 18.12143 -4.88813 52.91553 13.91588 -41.78344 68.60808 -94.74226 -10.3404 8.85085 50.08031 -0.7213 -6.06978 -23.77197 -6.22852 -3.29568 -2.33085 76.68547 15.11667 -2.26583 -35.22343 -12.25961 3.09024 2.51379
-0.16364 -0.02028 -0.20281 100.74146 -50.6827 -6.15399 31.2488 -4.1056 5.4548 13.57426 -13.35846 -0.83079 44.24359 -6.56877 62.31922 84.22853 71.6539 18.14817 -5.30795 53.16233 13.58831 -41.37252 62.92966 -97.2913 -11.58133 9.15818 50.29355 -0.64755 -5.20277 -23.32402 -6.26141 -3.39995 -2.38834 76.97918 14.82274 -2.51867 -35.07152 -11.99466 3.17253 2.54837
-0.1711 -0.02037 -0.20594 100.09567 -51.3586 -6.64715 31.23021 -4.41917 5.30034 13.58584 -13.55664 -0.83079 47.01538 -5.61191 62.50156 82.80934 71.22034 16.92034 -5.53623 51.7341 14.59207 -43.70625 62.30979 -95.03989 -9.47805 8.23723 50.59027 -0.73886 -4.56395 -22.92455 -6.29938 -3.4492 -2.41549 77.55221 14.60958 -2.37523 -35.41364 -11.76389 3.2994 2.60939
-0.17926 -0.02051 -0.20929 99.21997 -52.06336 -7.22712 31.24287 -4.79103 5.39226 13.45364 -13.67147 -0.83079 50.29875 -4.61567 62.35023 80.42843 71.45887 15.28525 -5.68072 49.67724 16.02178 -46.91681 63.50457 -91.23384 -6.14648 6.8952 50.91337 -0.88852 -3.99835 -22.52583 -6.33998 -3.47925 -2.43218 78.23019 14.42484 -2.10301 -35.93253 -11.54555 3.44303 2.68042
-0.18709 -0.02061 -0.21253 98.43717 -52.75712 -7.77931 31.23809 -5.13853 5.40852 13.39157 -13.81656 -0.83079 53.31172 -3.64899 62.35395 78.42818 71.48191 13.91116 -5.83639 47.90837 17.19394 -49.54574 63.93385 -88.32825 -3.34748 5.77931 51.21878 -1.00797 -3.40019 -22.10614 -6.37969 -3.51809 -2.45378 78.86217 14.23116 -1.89948 -36.36718 -11.32408 3.57711 2.74603
-0.195 -0.02078 -0.21583 97.69503 -53.44484 -8.28409 31.24831 -5.47953 5.26942 13.31171 -13.99725 -0.83079 56.52126 -2.62242 62.35014 76.657 71.11416 12.21647 -6.1072 46.10367 18.64026 -52.96903 64.09479 -84.65149 -0.63005 4.51571 51.55181 -1.14329 -2.78764 -21.77189 -6.41793 -3.55678 -2.47478 79.48835 14.01941 -1.65433 -36.81905 -11.08985 3.72052 2.81594
-0.2029 -0.02081 -0.21905 96.81968 -54.15007 -8.90637 31.23305 -5.8464 5.51063 13.23419 -14.08296 -0.83079 59.42567 -1.71409 62.28272 74.18555 71.71197 11.08752 -6.12062 44.24391 19.60948 -54.9352 65.22765 -82.17763 2.51408 3.46024 51.83019 -1.2595 -2.22953 -21.2617 -6.4603 -3.5915 -2.49473 80.15077 13.85145 -1.46711 -37.27603 -10.88639 3.84812 2.87908
-0.21074 -0.02047 -0.22206 95.59607 -54.90628 -9.84635 31.15402 -6.27739 6.77333 13.19467 -13.92383 -0.83079 61.40054 -1.15651 62.08827 69.99553 74.96523 11.68595 -5.40653 42.26972 19.22901 -52.6985 68.90557 -83.60478 6.84255 3.0784 51.97585 -1.30641 -1.77067 -20.25195 -6.50885 -3.61566 -2.51177 80.89088 13.81199 -1.44079 -37.71335 -10.75939 3.92672 2.92042
-0.21852 -0.01999 -0.22498 94.25348 -55.67677 -10.89883 31.04566 -6.73085 8.40453 13.16325 -13.67238 -0.83079 63.03841 -0.71766 61.84536 65.14069 79.14276 12.85579 -4.44208 40.28703 18.34236 -48.95827 73.44492 -86.25686 11.50221 2.91963 52.0607 -1.33258 -1.37153 -19.06864 -6.56222 -3.63694 -2.52841 81.66314 13.81397 -1.48106 -38.1482 -10.66405 3.98876 2.95456
-0.22623 -0.01957 -0.2279 92.99059 -56.43441 -11.89024 30.94134 -7.16922 9.84769 13.12949 -13.4641 -0.83079 64.8014 -0.21743 61.64583 60.60199 82.79883 13.72275 -3.61656 38.38488 17.63842 -45.87781 77.40129 -88.21082 15.80793 2.66383 52.15718 -1.36947 -0.96785 -17.97257 -6.61644 -3.66268 -2.54709 82.41832 13.78691 -1.51198 -38.57769 -10.55824 4.05917 2.9924
-0.23439 -0.01914 -0.23098 91.61298 -57.22097 -12.92662 30.87715 -7.63026 11.38844 13.08306 -13.24628 -0.83079 66.70307 0.25043 61.34771 55.96243 86.90247 14.76043 -2.68391 36.13125 17.14193 -42.91815 82.24419 -90.69979 21.01052 2.3824 52.32262 -1.4023 -0.47076 -16.83739 -6.65822 -3.67563 -2.55825 83.18741 13.80097 -1.45553 -39.03975 -10.43686 4.12713 3.02905
